<svg id="Layer_1" data-name="Layer 1" xmlns="http://www.w3.org/2000/svg" viewBox="0 0 50.26 50.26"><defs><style>.cls-1,.cls-2{fill:#fff;}.cls-1{fill-rule:evenodd;}</style></defs><title>gotop</title><path class="cls-1" d="M22.1,19.07H31c.14,0,.24.05.19.19l.05,9a.2.2,0,0,1-.19.19H29.84l.05-7.08L20.22,31a.73.73,0,0,1-1,0,.72.72,0,0,1,0-1l9.57-9.57H21.86l.05-1.17c-.05-.14.05-.23.19-.19Z"/><path class="cls-2" d="M25.13,50.26A25.13,25.13,0,1,1,50.26,25.13,25.15,25.15,0,0,1,25.13,50.26Zm0-49.12a24,24,0,1,0,24,24A24,24,0,0,0,25.13,1.14Z"/></svg>