<svg id="Layer_1" data-name="Layer 1" xmlns="http://www.w3.org/2000/svg" viewBox="0 0 266.34 22.94"><defs><style>.cls-1{fill:#1c415f;}</style></defs><title>logo</title><path class="cls-1" d="M22.35,22.19H0V20.93H7.13A14.19,14.19,0,0,0,6,18.71H2.92V14.48H19.43v4.23H16.18a15.28,15.28,0,0,1-.92,2.22h7.09ZM20.88,10.34H1.45V.91H2.71V9.16H6.07V7.58H3.69v-1H6.07V5.05H4V4h2V2.66H3.69v-1H6.07V.59H7.21V1.68H9.47v1H7.21V4H9.26v1h-2V6.58H9.5v1H7.21V9.16h3.32V.25h1.34V9.16h3.25V7.58H12.93v-1h2.19V5.05H13.19V4h1.93V2.66H13l0-1h2.19V.59h1.17V1.68h2.24v1H16.29V4h1.9v1h-1.9V6.58h2.24v1H16.29V9.16h3.28V.91h1.31ZM20.06,13H2.36V11.82h17.7Zm-1.94,4.55V15.61H4.23v1.94Zm-3.23,1.16H7.46c.33.68.66,1.42,1,2.22h5.49A15,15,0,0,0,14.89,18.71Z"/><path class="cls-1" d="M49.72,19.92,48.83,21A26.6,26.6,0,0,1,39,11.55V22.88H37.68V11.58a33.41,33.41,0,0,1-9.81,9.32L27,19.82A29.93,29.93,0,0,0,37.21,9.88H27.33V8.52H37.68v-5c-3.18.34-5.87.53-8.08.55l-.34-1.32Q40.6,2.47,46.61.34l.62,1.16A43.33,43.33,0,0,1,39,3.33V8.52H49.37V9.88H39.43A26.44,26.44,0,0,0,49.72,19.92Z"/><path class="cls-1" d="M76.54,17.75a9.42,9.42,0,0,1-.48,2.45,3.84,3.84,0,0,1-.76,1.46,1.81,1.81,0,0,1-.8.44,22.1,22.1,0,0,1-3.21.18c-1.85,0-3.77,0-5.78,0-1.67,0-3.33,0-5,0s-2.63-.06-2.93-.09a2.49,2.49,0,0,1-1-.33,1.78,1.78,0,0,1-.76-.8,2.88,2.88,0,0,1-.25-1.24V9.11H74.91v7H57V20c0,.5.29.79.88.89s3.65.14,9.21.14a60.36,60.36,0,0,0,7-.19c.52-.12.92-1.36,1.21-3.73Zm-11.9-3V10.44H57v4.31Zm8.87-8H57.08v-6H73.51ZM72.15,5.47V2.09H58.47V5.47Zm1.41,9.28V10.44H66v4.31Z"/><path class="cls-1" d="M103.68,3.45H96.76l1,.83a22.5,22.5,0,0,1-1.42,3.13h5.75V21a1.87,1.87,0,0,1-.55,1.38,3.56,3.56,0,0,1-2.39.55c-.33,0-.7,0-1.11-.05l-.46-1.34,2.6,0a.53.53,0,0,0,.6-.61V8.64H95.6v2.27c0,.43.23.64.7.64h3.32v1.23H95.81a1.66,1.66,0,0,1-1-.41,1.17,1.17,0,0,1-.5-.92V8.64H90.78A5.39,5.39,0,0,1,89.34,12a6.7,6.7,0,0,1-3.41,1.94l-.64-1.23c2.57-.62,3.95-2,4.11-4.06H84.28V22.85H82.93V7.41h5.61a18.1,18.1,0,0,0-1.4-3.15L88,3.45H81.33V2.19H91.84A13.14,13.14,0,0,0,91,.39L92.35,0a9.7,9.7,0,0,1,.91,2.19h10.42Zm-6,16.44H87.38V14.5H97.72ZM96.54,3.45H88.37c.7,1.59,1.23,2.91,1.6,4h5A31.36,31.36,0,0,0,96.54,3.45Zm-.22,15.18V15.74H88.71v2.89Z"/><path class="cls-1" d="M118.21,8.64a11.3,11.3,0,0,1-2,5.94l-1-.93a10.76,10.76,0,0,0,1.55-3.72h-2.4V21.25a1.82,1.82,0,0,1-.41,1.06c-.28.36-1,.54-2.09.54a8.61,8.61,0,0,1-1.18-.07l-.76-1.39c1.09.09,2,.13,2.56.13a.61.61,0,0,0,.4-.19.55.55,0,0,0,.22-.38V11.64a31.42,31.42,0,0,1-3.92,7.4l-.88-1a29.59,29.59,0,0,0,4.1-8.07h-4V8.64h5.7a20.94,20.94,0,0,0-4-3.47l.94-.86c.61.42,1.39,1,2.33,1.8a24.2,24.2,0,0,0,2.84-3.89h-7V.93h8.42V2.22A28.68,28.68,0,0,1,114.41,7l.88,1-.8.69Zm11.09,5.91a36,36,0,0,1-.42,4.75,7.2,7.2,0,0,1-.68,2.56,3.55,3.55,0,0,1-.87.76,8.63,8.63,0,0,1-3.32.23l-.62-1.38c.53,0,1.1.06,1.73.06a5.21,5.21,0,0,0,1.68-.14,1,1,0,0,0,.42-.41,7.15,7.15,0,0,0,.35-1.7c.14-1,.26-2.11.37-3.44h-4.31q-1.08,5-6.4,7.1l-1-1.06a9.32,9.32,0,0,0,3.85-2.35,7.66,7.66,0,0,0,2.21-3.69h-4.1V14.55h4.41a16.85,16.85,0,0,0,.23-2.58l1.3,0a20.69,20.69,0,0,1-.22,2.53Zm1.52-3.12-.74,1.16a18.42,18.42,0,0,1-5.56-2.76,19.8,19.8,0,0,1-5,2.71l-.91-1.11A15.83,15.83,0,0,0,123.46,9a14.11,14.11,0,0,1-2.31-2.87l1.13-.64a10.9,10.9,0,0,0,2.19,2.68A9.75,9.75,0,0,0,127.21,4h-5.52a18.84,18.84,0,0,1-3,3.18l-1-.92A18.51,18.51,0,0,0,122.52.18l1.29.49a17.77,17.77,0,0,1-1.21,2h7.83V4h-1.82a12.22,12.22,0,0,1-3.05,5A16.71,16.71,0,0,0,130.82,11.43Z"/><path class="cls-1" d="M145.56,4.28h-10.1V3h4.65A19.13,19.13,0,0,0,139,.69L140.21.1A17.33,17.33,0,0,1,141.54,3h4Zm-.89,3.82h-8.25V6.79h8.25Zm0,3.59h-8.25V10.42h8.25Zm-.17,10.76h-1.34V20.9h-5.11v2h-1.4V14.26h7.85Zm-1.34-2.85v-4h-5.11v4Zm14.76-2.44a14.9,14.9,0,0,1-.41,3.89,1.93,1.93,0,0,1-1.18,1.2,14.82,14.82,0,0,1-4,.31,20.88,20.88,0,0,1-4.14-.21,1.63,1.63,0,0,1-.9-.72,2,2,0,0,1-.3-1V9.24h8.54V2.76h-9.08V1.42h10.42v9.19h-8.54v9.83a.67.67,0,0,0,.39.66,13.31,13.31,0,0,0,3.11.18,31.72,31.72,0,0,0,3.68-.12c.47-.08.75-.51.85-1.3a25.14,25.14,0,0,0,.12-3.32Z"/><path class="cls-1" d="M171.54,15.76c0,1.12-.68,1.68-2,1.68a3.23,3.23,0,0,1-.46,0l-.51-1.33.74,0c.66,0,1-.2,1-.59V6h-2.14V22.83h-1.24V6h-2.12V17.73h-1.31V4.65h3.43V.28h1.24V4.65h3.43Zm13.24-2.37H175V21c.94-.35,2.22-.86,3.85-1.53l.23,1.28q-3.68,1.53-5.34,2.14l-.49-1.17a1.63,1.63,0,0,0,.44-1V13.39H172.6V12.12h1.06V.91h10.71V2.22H175V4.54h8.31V5.81H175V8.28h8.31V9.52H175v2.6h9.81Zm.38,8.41-.74,1.14a11.81,11.81,0,0,1-6.33-7.75l1.16-.46a11.29,11.29,0,0,0,1.16,2.73,17,17,0,0,0,3.31-3l.92.8a20.12,20.12,0,0,1-3.55,3.25A10.18,10.18,0,0,0,185.16,21.8Z"/><path class="cls-1" d="M212.1,15.58H210v3.31h-8.51V21a1.48,1.48,0,0,1-.64,1.4,6.32,6.32,0,0,1-2.74.38c-.46,0-.94,0-1.42-.05l-.43-1.24,3.25,0a.6.6,0,0,0,.67-.69V18.89H191V17.73h9.16V15.58H189.6V14.35h10.56V12.44H191V11.2h9.16V9.29h-8.34V4.93h8.34V3.2H189.79V2h10.37V.2h1.31V2h10.32V3.2H201.47V4.93h8.36V9.29h-8.36V11.2H210v3.15h2.12ZM200.16,8.05V6.14h-7V8.05Zm8.3,0V6.14h-7V8.05Zm.16,6.3V12.44h-7.15v1.91Zm0,3.38V15.58h-7.15v2.15Z"/><path class="cls-1" d="M226.58,8.64a11.3,11.3,0,0,1-2,5.94l-1-.93a10.76,10.76,0,0,0,1.55-3.72h-2.4V21.25a1.82,1.82,0,0,1-.41,1.06c-.28.36-1,.54-2.09.54a8.61,8.61,0,0,1-1.18-.07l-.76-1.39c1.09.09,2,.13,2.56.13a.59.59,0,0,0,.4-.19.51.51,0,0,0,.22-.38V11.64a31.05,31.05,0,0,1-3.92,7.4l-.88-1a29.59,29.59,0,0,0,4.1-8.07h-4V8.64h5.71a21.33,21.33,0,0,0-4-3.47l.94-.86c.61.42,1.39,1,2.33,1.8a23.6,23.6,0,0,0,2.84-3.89h-6.94V.93h8.41V2.22A28.68,28.68,0,0,1,222.78,7l.88,1-.79.69Zm11.09,5.91a36,36,0,0,1-.42,4.75,7.2,7.2,0,0,1-.68,2.56,3.22,3.22,0,0,1-.87.76,8.63,8.63,0,0,1-3.32.23l-.62-1.38c.53,0,1.11.06,1.73.06a5.21,5.21,0,0,0,1.68-.14,1,1,0,0,0,.42-.41,7.15,7.15,0,0,0,.35-1.7c.14-1,.26-2.11.37-3.44H232q-1.08,5-6.4,7.1l-1-1.06a9.32,9.32,0,0,0,3.85-2.35,7.66,7.66,0,0,0,2.21-3.69h-4.1V14.55H231a16.85,16.85,0,0,0,.23-2.58l1.3,0a18.86,18.86,0,0,1-.22,2.53Zm1.52-3.12-.74,1.16a18.25,18.25,0,0,1-5.55-2.76,20,20,0,0,1-5,2.71l-.9-1.11A16.07,16.07,0,0,0,231.84,9a14.2,14.2,0,0,1-2.32-2.87l1.13-.64a10.9,10.9,0,0,0,2.19,2.68A9.75,9.75,0,0,0,235.58,4h-5.52a19.24,19.24,0,0,1-3,3.18l-1-.92A18.38,18.38,0,0,0,230.89.18l1.29.49a16.43,16.43,0,0,1-1.21,2h7.83V4H237a12.22,12.22,0,0,1-3,5A16.82,16.82,0,0,0,239.19,11.43Z"/><path class="cls-1" d="M254.49,1.47a26.61,26.61,0,0,1-7.66,2V6.53h6.76V14h-6.78a20.92,20.92,0,0,1-2,8.64l-1.14-.8a18.74,18.74,0,0,0,1.88-8.7V2.39A26.13,26.13,0,0,0,253.9.3Zm-2.21,11.26V7.79h-5.45v4.94Zm14.06-3H263.4V22.94h-1.27V9.73h-4.64a25.61,25.61,0,0,1-.87,7.86,24.27,24.27,0,0,1-2.74,5.35l-1.09-.88a17,17,0,0,0,2.79-5.55,28.92,28.92,0,0,0,.59-6.49V2.14A27.83,27.83,0,0,0,265.33.3L266,1.47a29.34,29.34,0,0,1-8.55,1.86V8.47h8.85Z"/></svg>