<svg id="Layer_1" data-name="Layer 1" xmlns="http://www.w3.org/2000/svg" viewBox="0 0 148.04 31.85"><defs><style>.cls-1{fill:none;stroke:#404041;stroke-miterlimit:10;stroke-width:0.75px;}.cls-2,.cls-3{fill:#404041;}.cls-3{fill-rule:evenodd;}</style></defs><title>section-1-detail</title><rect class="cls-1" x="0.38" y="0.38" width="147.29" height="31.1" rx="15.55"/><path class="cls-2" d="M14.16,21.14v-.26h.35a.94.94,0,0,0,.84-.37,2.15,2.15,0,0,0,.15-1v-6a1.89,1.89,0,0,0-.2-1.09,1,1,0,0,0-.79-.3h-.35v-.25h3.78a8.14,8.14,0,0,1,3.16.47,3.76,3.76,0,0,1,1.74,1.57,4.83,4.83,0,0,1,.66,2.54,4.67,4.67,0,0,1-1.17,3.24,5.2,5.2,0,0,1-4,1.45Zm2.65-.67a7.5,7.5,0,0,0,1.45.19,3.45,3.45,0,0,0,2.64-1.12,4.26,4.26,0,0,0,1-3,4.27,4.27,0,0,0-1-3,3.57,3.57,0,0,0-2.69-1.1,5.83,5.83,0,0,0-1.4.19Z"/><path class="cls-2" d="M26.22,17.23a3.28,3.28,0,0,0,.68,2.19,2.06,2.06,0,0,0,1.61.79,1.79,1.79,0,0,0,1.07-.33,2.63,2.63,0,0,0,.76-1.16l.21.13a3.2,3.2,0,0,1-.83,1.71,2.24,2.24,0,0,1-1.73.77,2.51,2.51,0,0,1-1.93-.88,3.35,3.35,0,0,1-.81-2.36,3.58,3.58,0,0,1,.83-2.51,2.69,2.69,0,0,1,2.07-.9,2.34,2.34,0,0,1,1.73.7,2.53,2.53,0,0,1,.67,1.85Zm0-.39h2.9A2.71,2.71,0,0,0,29,16a1.37,1.37,0,0,0-1.22-.82,1.41,1.41,0,0,0-1,.44A2,2,0,0,0,26.22,16.84Z"/><path class="cls-2" d="M33.9,12.82v2.06h1.47v.47H33.9v4.06a1.32,1.32,0,0,0,.18.82.52.52,0,0,0,.45.22.78.78,0,0,0,.43-.14.94.94,0,0,0,.33-.42h.27a2.13,2.13,0,0,1-.68,1,1.43,1.43,0,0,1-.9.34,1.2,1.2,0,0,1-.62-.18,1.05,1.05,0,0,1-.44-.49,2.58,2.58,0,0,1-.14-1V15.35h-1v-.22a2.45,2.45,0,0,0,.77-.51,3.65,3.65,0,0,0,.7-.85,6.48,6.48,0,0,0,.44-.95Z"/><path class="cls-2" d="M40.22,20.23A10,10,0,0,1,39,21.1a1.85,1.85,0,0,1-.78.17,1.39,1.39,0,0,1-1.07-.45,1.61,1.61,0,0,1-.42-1.17,1.54,1.54,0,0,1,.2-.79,2.66,2.66,0,0,1,1-.87,14.28,14.28,0,0,1,2.3-1v-.25a2.09,2.09,0,0,0-.29-1.28,1.06,1.06,0,0,0-.87-.35.94.94,0,0,0-.68.23.68.68,0,0,0-.26.53v.4a.65.65,0,0,1-.16.48.54.54,0,0,1-.42.18.51.51,0,0,1-.41-.18.69.69,0,0,1-.16-.49,1.41,1.41,0,0,1,.6-1.08,2.58,2.58,0,0,1,1.69-.49,2.86,2.86,0,0,1,1.36.28,1.29,1.29,0,0,1,.6.66,3.88,3.88,0,0,1,.12,1.21V19a7.72,7.72,0,0,0,0,1.1.49.49,0,0,0,.11.27.24.24,0,0,0,.18.07.38.38,0,0,0,.19,0,3.52,3.52,0,0,0,.55-.5v.38c-.51.69-1,1-1.46,1a.67.67,0,0,1-.53-.23A1.32,1.32,0,0,1,40.22,20.23Zm0-.44V17.4a13.61,13.61,0,0,0-1.33.59,2.33,2.33,0,0,0-.77.62,1.19,1.19,0,0,0-.23.72,1.16,1.16,0,0,0,.29.82.88.88,0,0,0,.68.32A2.43,2.43,0,0,0,40.22,19.79Z"/><path class="cls-2" d="M45.75,14.69v5a2.5,2.5,0,0,0,.08.78.62.62,0,0,0,.26.29,1.24,1.24,0,0,0,.61.1v.25h-3v-.25a1.37,1.37,0,0,0,.61-.09.6.6,0,0,0,.25-.29,2.29,2.29,0,0,0,.09-.79V17.31A8.75,8.75,0,0,0,44.55,16a.47.47,0,0,0-.15-.3.41.41,0,0,0-.28-.09,1.28,1.28,0,0,0-.46.1l-.1-.24,1.89-.77Zm-.57-3.27a.64.64,0,0,1,.49.2.68.68,0,0,1,.2.49.7.7,0,0,1-.2.49.64.64,0,0,1-.49.2.66.66,0,0,1-.49-.2.67.67,0,0,1-.21-.49.65.65,0,0,1,.21-.49A.64.64,0,0,1,45.18,11.42Z"/><path class="cls-2" d="M50.33,11.42v8.3a2.18,2.18,0,0,0,.09.78.53.53,0,0,0,.26.29,1.45,1.45,0,0,0,.66.1v.25H48.27v-.25a1.3,1.3,0,0,0,.59-.09.6.6,0,0,0,.25-.29,2.29,2.29,0,0,0,.09-.79V14a10.06,10.06,0,0,0-.05-1.3A.56.56,0,0,0,49,12.4a.4.4,0,0,0-.27-.09,1.42,1.42,0,0,0-.46.11l-.11-.24L50,11.42Z"/><path class="cls-3" d="M122.35,16.12l-2.61,2.6a.25.25,0,0,1-.38,0l-.25-.25,2.36-2.35a.31.31,0,0,0,0-.39l-2.36-2.35.25-.25a.25.25,0,0,1,.38,0l2.61,2.6a.27.27,0,0,1,0,.39Z"/><circle class="cls-1" cx="120.77" cy="15.92" r="6.84"/></svg>