<svg id="Layer_1" data-name="Layer 1" xmlns="http://www.w3.org/2000/svg" viewBox="0 0 29.22 29.22"><defs><style>.cls-1,.cls-2{fill:#fff;}.cls-1{fill-rule:evenodd;}</style></defs><title>section-2-arrow-hover</title><path class="cls-1" d="M17.9,15l-5.44,5.44a.53.53,0,0,1-.8,0l-.52-.52L16.06,15a.63.63,0,0,0,0-.8L11.14,9.29l.52-.52a.53.53,0,0,1,.8,0l5.44,5.44a.53.53,0,0,1,0,.8Z"/><path class="cls-2" d="M14.61,29.22A14.61,14.61,0,1,1,29.22,14.61,14.62,14.62,0,0,1,14.61,29.22Zm0-28.56a14,14,0,1,0,14,14A14,14,0,0,0,14.61.66Z"/></svg>