<svg id="Layer_1" data-name="Layer 1" xmlns="http://www.w3.org/2000/svg" viewBox="0 0 148.04 31.85"><defs><style>.cls-1,.cls-2{fill:#fff;}.cls-2{fill-rule:evenodd;}</style></defs><title>section-4-detail</title><path class="cls-1" d="M132.12,31.85H15.92A15.93,15.93,0,0,1,15.92,0h116.2a15.93,15.93,0,0,1,0,31.85ZM15.92.75a15.18,15.18,0,0,0,0,30.35h116.2a15.18,15.18,0,0,0,0-30.35Z"/><path class="cls-1" d="M14.15,20.88a2.14,2.14,0,0,0,1-.28c.15-.13.23-.46.23-1V13.39a1.43,1.43,0,0,0-.23-1,1.69,1.69,0,0,0-1-.28v-.26h3.77a7.47,7.47,0,0,1,3.23.63,4.08,4.08,0,0,1,2.38,4,4.72,4.72,0,0,1-.43,2,4,4,0,0,1-1.29,1.59,4.33,4.33,0,0,1-1.13.62,7.8,7.8,0,0,1-2.64.4H14.15ZM17,20.51a1.46,1.46,0,0,0,.69.11,5.09,5.09,0,0,0,2.7-.65A3.69,3.69,0,0,0,22,16.55a4,4,0,0,0-1.34-3.24,4.69,4.69,0,0,0-3-.93,1.33,1.33,0,0,0-.64.1.5.5,0,0,0-.17.45v7.13A.53.53,0,0,0,17,20.51Z"/><path class="cls-1" d="M29.63,15.39a2.46,2.46,0,0,1,.72,1.89H26a3.7,3.7,0,0,0,.72,2.31,2,2,0,0,0,1.54.72,1.94,1.94,0,0,0,1.21-.38,3.74,3.74,0,0,0,.91-1.06l.24.08a3.94,3.94,0,0,1-1.05,1.61,2.64,2.64,0,0,1-1.89.74,2.3,2.3,0,0,1-2-1,3.71,3.71,0,0,1-.7-2.24,3.66,3.66,0,0,1,.81-2.37,2.62,2.62,0,0,1,2.12-1A2.44,2.44,0,0,1,29.63,15.39Zm-3.28.52a2.82,2.82,0,0,0-.31.93h2.88a2.89,2.89,0,0,0-.25-1,1.19,1.19,0,0,0-1.13-.61A1.31,1.31,0,0,0,26.35,15.91Z"/><path class="cls-1" d="M35.21,14.83v.5h-1.4v3.93a2.63,2.63,0,0,0,.09.79.63.63,0,0,0,.64.47.83.83,0,0,0,.43-.11,2.16,2.16,0,0,0,.41-.37l.18.15-.15.2a2.23,2.23,0,0,1-.75.68,1.77,1.77,0,0,1-.77.2,1.08,1.08,0,0,1-1.09-.72,2.86,2.86,0,0,1-.16-1.08V15.33h-.74l-.05,0a.07.07,0,0,1,0-.06.18.18,0,0,1,0-.11L32,15a5,5,0,0,0,.68-.63c.14-.16.47-.59,1-1.28h.1a.16.16,0,0,1,0,.1v1.68Z"/><path class="cls-1" d="M37.74,18.12A15.6,15.6,0,0,1,40.25,17v-.58a2.21,2.21,0,0,0-.14-1,1,1,0,0,0-1-.46,1.31,1.31,0,0,0-.66.18.56.56,0,0,0-.32.5,1.3,1.3,0,0,0,0,.28,2.14,2.14,0,0,1,0,.25.56.56,0,0,1-.25.53.64.64,0,0,1-.34.09.6.6,0,0,1-.48-.2.71.71,0,0,1-.16-.45,1.43,1.43,0,0,1,.59-1,2.54,2.54,0,0,1,1.73-.52,1.85,1.85,0,0,1,1.8.86,2.92,2.92,0,0,1,.26,1.37v2.74a1.76,1.76,0,0,0,0,.55.36.36,0,0,0,.37.27.67.67,0,0,0,.26-.05,2.16,2.16,0,0,0,.35-.23v.35A2.16,2.16,0,0,1,42,21a1.37,1.37,0,0,1-.78.26.76.76,0,0,1-.67-.3,1.31,1.31,0,0,1-.23-.72,6.85,6.85,0,0,1-.89.67,2.28,2.28,0,0,1-1.18.37,1.45,1.45,0,0,1-1-.41,1.4,1.4,0,0,1-.43-1A2,2,0,0,1,37.74,18.12Zm2.51-.77a6.15,6.15,0,0,0-1.3.57,1.71,1.71,0,0,0-1,1.38,1,1,0,0,0,.41.92,1,1,0,0,0,.59.19,1.65,1.65,0,0,0,.87-.25.75.75,0,0,0,.41-.64Z"/><path class="cls-1" d="M43.42,21a1.83,1.83,0,0,0,.93-.25c.13-.12.19-.45.19-1V16.45a2.09,2.09,0,0,0-.06-.61.41.41,0,0,0-.43-.28H43.9l-.41.11v-.21l.29-.1c.8-.26,1.35-.45,1.67-.58a.93.93,0,0,1,.24-.09.43.43,0,0,1,0,.11v4.9a1.57,1.57,0,0,0,.19,1,1.42,1.42,0,0,0,.85.26v.19H43.42Zm1.09-9.15a.72.72,0,1,1,0,1,.72.72,0,0,1-.2-.5A.74.74,0,0,1,44.51,11.8Z"/><path class="cls-1" d="M48,21a1.7,1.7,0,0,0,.86-.26,1,1,0,0,0,.23-.76V13.25a1.69,1.69,0,0,0-.08-.62.54.54,0,0,0-.55-.29l-.21,0-.29.06V12.2c.62-.17,1.36-.39,2.23-.66,0,0,.05,0,.05,0a.77.77,0,0,1,0,.18V20c0,.4.07.66.21.77a1.64,1.64,0,0,0,.85.23v.19H48Z"/><path class="cls-2" d="M122.35,16.12l-2.61,2.6a.25.25,0,0,1-.38,0l-.25-.25,2.35-2.35a.29.29,0,0,0,0-.39l-2.35-2.35.25-.25a.25.25,0,0,1,.38,0l2.61,2.6a.27.27,0,0,1,0,.39Z"/><path class="cls-1" d="M120.77,23.14A7.22,7.22,0,1,1,128,15.92,7.22,7.22,0,0,1,120.77,23.14Zm0-13.68a6.47,6.47,0,1,0,6.46,6.46A6.47,6.47,0,0,0,120.77,9.46Z"/></svg>